<?xml version="1.0" standalone="no"?>
<!DOCTYPE svg PUBLIC "-//W3C//DTD SVG 20010904//EN"
 "http://www.w3.org/TR/2001/REC-SVG-20010904/DTD/svg10.dtd">
<svg version="1.0" xmlns="http://www.w3.org/2000/svg"
 width="768.000000pt" height="768.000000pt" viewBox="0 0 768.000000 768.000000"
 preserveAspectRatio="xMidYMid meet">

<g transform="translate(0.000000,768.000000) scale(0.100000,-0.100000)"
fill="#000000" stroke="none">
<path d="M840 7490 c-282 -36 -527 -202 -657 -446 -81 -153 -110 -287 -99
-460 15 -252 148 -489 356 -635 85 -60 111 -73 260 -128 l125 -47 3 -536 2
-536 -55 -21 c-31 -12 -59 -21 -63 -21 -9 0 -138 -54 -182 -76 -59 -29 -176
-122 -231 -182 -85 -93 -144 -197 -186 -332 -25 -77 -27 -100 -27 -235 0 -137
2 -158 28 -240 16 -49 38 -107 49 -130 182 -364 561 -546 970 -465 56 11 113
23 126 26 20 4 128 -100 833 -803 445 -444 836 -835 869 -868 69 -68 65 -42
32 -247 -15 -93 -15 -102 6 -218 30 -170 83 -288 184 -411 184 -222 464 -334
754 -302 188 21 364 104 493 232 67 67 98 107 162 211 17 29 78 177 78 191 0
5 10 31 22 59 l22 50 580 -2 581 -3 41 -110 c51 -137 68 -176 102 -229 154
-241 394 -386 666 -402 402 -24 748 210 875 593 129 387 -66 843 -437 1019
-189 90 -403 112 -587 62 -123 -34 -230 -87 -319 -158 -138 -109 -227 -244
-301 -453 l-38 -107 -581 0 -582 0 -22 50 c-12 28 -22 55 -22 60 0 14 -46 124
-77 184 -103 202 -304 360 -538 426 -120 34 -307 33 -430 -2 -153 -43 -235
-90 -389 -219 -54 -46 -106 -89 -115 -96 -18 -13 -79 45 -1068 1029 l-572 570
22 31 c12 18 24 34 27 37 3 3 31 40 63 82 78 105 131 207 164 313 24 81 27
105 26 240 0 132 -3 159 -26 230 -77 244 -214 409 -432 523 -33 17 -105 48
-160 68 -55 20 -106 41 -113 46 -9 8 -12 124 -10 542 l3 531 80 28 c44 15 96
33 115 40 78 26 210 111 282 181 120 115 191 232 240 396 19 63 22 98 22 220
0 129 -3 155 -27 235 -89 292 -315 513 -605 590 -102 27 -221 36 -312 25z
m240 -224 c236 -51 424 -240 481 -483 24 -106 24 -180 -1 -288 -111 -475 -686
-657 -1053 -334 -314 276 -280 771 68 1011 140 97 329 132 505 94z m35 -2818
c224 -66 392 -244 445 -473 25 -108 25 -182 1 -288 -49 -209 -189 -372 -391
-455 -133 -54 -348 -55 -466 -2 -24 11 -45 20 -49 20 -9 0 -86 52 -133 89 -23
18 -64 61 -91 95 -204 259 -184 614 49 847 174 175 404 235 635 167z m2836
-2794 c233 -43 403 -188 495 -419 26 -65 28 -81 29 -210 0 -124 -3 -147 -24
-205 -64 -170 -145 -263 -322 -372 -14 -9 -64 -28 -110 -42 -233 -71 -502 6
-660 189 -19 22 -37 42 -41 45 -19 14 -98 188 -109 238 -7 34 -9 104 -7 177 4
99 10 132 32 188 63 162 188 298 336 364 60 27 203 61 261 62 20 1 74 -6 120
-15z m2908 0 c207 -39 370 -164 470 -362 30 -60 61 -200 61 -275 0 -67 -37
-220 -67 -277 -122 -231 -333 -360 -584 -360 -295 1 -544 197 -618 488 -89
348 135 708 489 783 107 22 143 23 249 3z"/>
<path d="M3730 7494 c-141 -26 -306 -92 -393 -157 -117 -88 -243 -251 -296
-384 -27 -68 -61 -241 -61 -309 0 -119 52 -315 107 -406 13 -21 23 -40 23 -43
0 -3 24 -37 54 -74 193 -242 474 -358 779 -323 119 13 204 43 361 126 l109 57
814 -813 c447 -447 813 -818 813 -823 0 -6 -11 -33 -24 -61 -110 -228 -121
-268 -120 -454 1 -139 3 -164 27 -239 178 -563 816 -786 1310 -458 61 41 184
166 224 229 199 314 184 708 -37 992 -36 46 -139 145 -180 173 -161 109 -303
153 -494 153 -171 -1 -265 -26 -455 -120 -101 -50 -104 -51 -124 -33 -54 48
-1607 1606 -1607 1613 0 10 27 89 40 115 27 57 61 166 76 243 95 508 -290 982
-811 997 -60 2 -121 1 -135 -1z m239 -224 c35 -6 96 -26 136 -45 162 -77 269
-192 339 -365 29 -72 31 -81 30 -220 0 -134 -2 -150 -28 -214 -41 -105 -73
-154 -156 -237 -129 -131 -269 -189 -450 -189 -189 0 -340 65 -470 201 -62 66
-102 128 -137 216 -26 64 -27 78 -27 223 -1 149 0 158 28 225 37 89 81 158
137 215 55 57 143 122 189 140 19 7 40 17 47 22 41 31 243 47 362 28z m2977
-2829 c211 -71 362 -234 420 -456 29 -110 30 -188 4 -296 -70 -296 -324 -499
-625 -499 -138 0 -238 30 -356 107 -136 88 -227 217 -268 381 -59 230 12 463
192 628 175 160 409 209 633 135z"/>
<path d="M6645 7493 c-63 -7 -213 -52 -269 -80 -182 -92 -327 -238 -408 -413
-60 -129 -73 -193 -72 -360 0 -140 2 -163 26 -235 15 -44 37 -103 50 -130 112
-240 368 -434 628 -474 312 -49 604 61 801 299 78 95 122 178 164 310 25 76
28 101 28 230 1 137 -1 151 -31 245 -94 292 -301 494 -595 580 -83 25 -238 38
-322 28z m231 -224 c141 -26 275 -109 373 -232 60 -76 97 -155 122 -260 25
-104 24 -183 -5 -292 -61 -232 -212 -389 -441 -461 -76 -24 -96 -26 -202 -22
-185 7 -308 61 -438 192 -314 316 -211 852 200 1035 105 47 264 63 391 40z"/>
<path d="M3737 4679 c-297 -29 -569 -234 -689 -523 -34 -82 -68 -245 -68 -327
0 -159 72 -371 170 -503 286 -388 843 -461 1217 -161 260 208 373 523 304 851
-21 101 -83 241 -141 319 -42 55 -134 146 -195 192 -161 120 -370 173 -598
152z m283 -231 c200 -62 342 -195 424 -398 29 -71 30 -83 31 -215 0 -153 -12
-205 -79 -325 -34 -60 -164 -198 -211 -223 -153 -81 -235 -101 -385 -94 -156
8 -290 65 -400 169 -48 45 -110 121 -110 134 0 4 -6 15 -13 23 -8 9 -27 48
-43 86 -27 66 -29 78 -29 220 0 134 3 157 24 215 73 196 206 329 401 399 122
45 263 48 390 9z"/>
<path d="M810 1870 c-273 -42 -525 -226 -642 -470 -137 -283 -110 -622 68
-868 153 -211 384 -342 632 -358 416 -27 767 218 889 620 25 82 27 105 27 236
-1 126 -4 155 -27 225 -48 152 -101 245 -197 348 -157 168 -362 263 -589 272
-58 2 -131 0 -161 -5z m239 -216 c258 -48 451 -234 511 -489 25 -108 25 -182
0 -287 -70 -296 -324 -498 -625 -498 -299 0 -550 196 -624 488 -90 349 137
708 494 783 104 22 140 22 244 3z"/>
</g>
</svg>
